<svg width="312" height="45" viewBox="0 0 312 45" fill="none" xmlns="http://www.w3.org/2000/svg">
<path d="M30.16 39.84C30.608 40.544 30.832 41.232 30.832 41.904C30.832 42.768 30.464 43.488 29.728 44.064C29.024 44.64 28.192 44.928 27.232 44.928C26.56 44.928 25.92 44.768 25.312 44.448C24.736 44.128 24.272 43.664 23.92 43.056L21.04 38.256C20.656 37.616 20.144 37.152 19.504 36.864C18.864 36.576 18 36.432 16.912 36.432C13.552 36.432 10.624 35.728 8.128 34.32C5.664 32.88 3.76 30.864 2.416 28.272C1.072 25.648 0.4 22.576 0.4 19.056C0.4 15.536 1.072 12.48 2.416 9.888C3.76 7.264 5.664 5.248 8.128 3.84C10.624 2.432 13.552 1.728 16.912 1.728C20.272 1.728 23.184 2.432 25.648 3.84C28.144 5.248 30.064 7.264 31.408 9.888C32.752 12.48 33.424 15.536 33.424 19.056C33.424 22.736 32.688 25.92 31.216 28.608C29.776 31.264 27.712 33.248 25.024 34.56C26.592 35.04 27.856 36.064 28.816 37.632L30.16 39.84ZM16.912 30.624C19.728 30.624 21.936 29.632 23.536 27.648C25.168 25.664 25.984 22.8 25.984 19.056C25.984 15.312 25.184 12.464 23.584 10.512C21.984 8.528 19.76 7.536 16.912 7.536C14.064 7.536 11.84 8.528 10.24 10.512C8.672 12.464 7.888 15.312 7.888 19.056C7.888 22.8 8.688 25.664 10.288 27.648C11.888 29.632 14.096 30.624 16.912 30.624ZM57.6213 11.952C58.7413 11.952 59.6213 12.256 60.2613 12.864C60.9333 13.472 61.2693 14.304 61.2693 15.36V32.976C61.2693 33.968 60.9173 34.768 60.2133 35.376C59.5413 35.984 58.6613 36.288 57.5733 36.288C56.5493 36.288 55.7333 36 55.1253 35.424C54.5173 34.848 54.2133 34.08 54.2133 33.12V32.64C53.4773 33.856 52.5013 34.784 51.2853 35.424C50.1013 36.064 48.7573 36.384 47.2533 36.384C44.2773 36.384 42.0533 35.568 40.5813 33.936C39.1413 32.272 38.4213 29.776 38.4213 26.448V15.36C38.4213 14.304 38.7413 13.472 39.3813 12.864C40.0533 12.256 40.9493 11.952 42.0693 11.952C43.1893 11.952 44.0693 12.256 44.7093 12.864C45.3493 13.472 45.6693 14.304 45.6693 15.36V26.592C45.6693 28 45.9573 29.04 46.5333 29.712C47.1413 30.384 48.0533 30.72 49.2693 30.72C50.6773 30.72 51.8133 30.24 52.6773 29.28C53.5733 28.32 54.0213 27.056 54.0213 25.488V15.36C54.0213 14.304 54.3413 13.472 54.9813 12.864C55.6213 12.256 56.5013 11.952 57.6213 11.952ZM85.7429 28.992C86.3829 28.992 86.8949 29.248 87.2789 29.76C87.6949 30.272 87.9029 30.928 87.9029 31.728C87.9029 32.272 87.7429 32.784 87.4229 33.264C87.1029 33.712 86.6549 34.096 86.0789 34.416C84.9909 34.992 83.7269 35.472 82.2869 35.856C80.8469 36.208 79.5189 36.384 78.3029 36.384C75.7429 36.384 73.5029 35.888 71.5829 34.896C69.6949 33.904 68.2389 32.496 67.2149 30.672C66.1909 28.816 65.6789 26.64 65.6789 24.144C65.6789 21.744 66.1749 19.616 67.1669 17.76C68.1589 15.904 69.5349 14.464 71.2949 13.44C73.0549 12.384 75.0549 11.856 77.2949 11.856C79.4389 11.856 81.3109 12.336 82.9109 13.296C84.5429 14.224 85.8069 15.568 86.7029 17.328C87.5989 19.056 88.0469 21.088 88.0469 23.424C88.0469 24.128 87.8709 24.672 87.5189 25.056C87.1989 25.408 86.7349 25.584 86.1269 25.584H72.6869C72.9109 27.472 73.4869 28.848 74.4149 29.712C75.3429 30.544 76.6709 30.96 78.3989 30.96C79.3269 30.96 80.1589 30.848 80.8949 30.624C81.6309 30.4 82.4469 30.096 83.3429 29.712C83.7909 29.52 84.2229 29.36 84.6389 29.232C85.0549 29.072 85.4229 28.992 85.7429 28.992ZM77.4869 16.848C76.1109 16.848 75.0069 17.296 74.1749 18.192C73.3429 19.056 72.8469 20.32 72.6869 21.984H81.9509C81.8549 20.288 81.4229 19.008 80.6549 18.144C79.9189 17.28 78.8629 16.848 77.4869 16.848ZM101.353 36.384C99.4006 36.384 97.7046 36.224 96.2646 35.904C94.8246 35.584 93.5606 35.072 92.4726 34.368C91.9926 34.08 91.6246 33.696 91.3686 33.216C91.1126 32.736 90.9846 32.192 90.9846 31.584C90.9846 30.848 91.1926 30.24 91.6086 29.76C92.0246 29.248 92.5366 28.992 93.1446 28.992C93.5606 28.992 93.9766 29.072 94.3926 29.232C94.8086 29.36 95.2406 29.52 95.6886 29.712C96.5846 30.128 97.4646 30.464 98.3286 30.72C99.1926 30.944 100.265 31.056 101.545 31.056C102.665 31.056 103.529 30.88 104.137 30.528C104.777 30.176 105.097 29.696 105.097 29.088C105.097 28.64 104.953 28.288 104.665 28.032C104.409 27.744 103.913 27.488 103.177 27.264C102.441 27.04 101.273 26.768 99.6726 26.448C96.8246 25.904 94.7766 25.088 93.5286 24C92.2806 22.912 91.6566 21.392 91.6566 19.44C91.6566 18 92.0886 16.704 92.9526 15.552C93.8486 14.4 95.0646 13.504 96.6006 12.864C98.1366 12.192 99.8646 11.856 101.785 11.856C103.161 11.856 104.505 12.032 105.817 12.384C107.129 12.736 108.297 13.232 109.321 13.872C110.313 14.48 110.809 15.376 110.809 16.56C110.809 17.328 110.601 17.968 110.185 18.48C109.769 18.992 109.257 19.248 108.649 19.248C107.913 19.248 107.033 18.96 106.009 18.384C105.209 17.968 104.473 17.664 103.801 17.472C103.161 17.248 102.393 17.136 101.497 17.136C100.505 17.136 99.7206 17.328 99.1446 17.712C98.5686 18.064 98.2806 18.56 98.2806 19.2C98.2806 19.872 98.6166 20.384 99.2886 20.736C99.9606 21.088 101.257 21.44 103.177 21.792C105.321 22.208 107.001 22.72 108.217 23.328C109.433 23.904 110.313 24.64 110.857 25.536C111.401 26.432 111.673 27.568 111.673 28.944C111.673 31.216 110.729 33.024 108.841 34.368C106.985 35.712 104.489 36.384 101.353 36.384ZM128.685 31.008C129.645 31.072 130.349 31.312 130.797 31.728C131.245 32.144 131.469 32.752 131.469 33.552C131.469 34.48 131.101 35.184 130.365 35.664C129.629 36.144 128.573 36.336 127.197 36.24L125.853 36.144C120.253 35.696 117.453 32.768 117.453 27.36V17.856H115.533C114.477 17.856 113.677 17.632 113.133 17.184C112.589 16.704 112.317 16.032 112.317 15.168C112.317 14.272 112.589 13.6 113.133 13.152C113.677 12.672 114.477 12.432 115.533 12.432H117.453V8.688C117.453 7.632 117.773 6.8 118.413 6.192C119.085 5.584 119.981 5.28 121.101 5.28C122.221 5.28 123.101 5.584 123.741 6.192C124.381 6.8 124.701 7.632 124.701 8.688V12.432H128.061C130.237 12.432 131.325 13.344 131.325 15.168C131.325 16.032 131.053 16.704 130.509 17.184C129.965 17.632 129.149 17.856 128.061 17.856H124.701V27.888C124.701 28.848 124.925 29.584 125.373 30.096C125.821 30.576 126.477 30.848 127.341 30.912L128.685 31.008ZM137.791 36.288C136.735 36.288 135.855 36 135.151 35.424C134.479 34.848 134.143 34 134.143 32.88V15.36C134.143 14.24 134.495 13.392 135.199 12.816C135.903 12.24 136.767 11.952 137.791 11.952C138.815 11.952 139.663 12.24 140.335 12.816C141.039 13.392 141.391 14.24 141.391 15.36V32.88C141.391 34 141.039 34.848 140.335 35.424C139.663 36 138.815 36.288 137.791 36.288ZM137.791 8.112C136.511 8.112 135.503 7.792 134.767 7.152C134.031 6.48 133.663 5.584 133.663 4.464C133.663 3.344 134.031 2.464 134.767 1.824C135.503 1.184 136.511 0.863997 137.791 0.863997C139.039 0.863997 140.031 1.2 140.767 1.872C141.535 2.512 141.919 3.376 141.919 4.464C141.919 5.584 141.551 6.48 140.815 7.152C140.079 7.792 139.071 8.112 137.791 8.112ZM158.268 36.384C155.772 36.384 153.58 35.888 151.692 34.896C149.804 33.872 148.348 32.448 147.324 30.624C146.3 28.768 145.788 26.592 145.788 24.096C145.788 21.6 146.3 19.44 147.324 17.616C148.348 15.76 149.804 14.336 151.692 13.344C153.58 12.352 155.772 11.856 158.268 11.856C160.764 11.856 162.956 12.352 164.844 13.344C166.732 14.336 168.188 15.76 169.212 17.616C170.236 19.44 170.748 21.6 170.748 24.096C170.748 26.592 170.236 28.768 169.212 30.624C168.188 32.448 166.732 33.872 164.844 34.896C162.956 35.888 160.764 36.384 158.268 36.384ZM158.268 30.864C161.788 30.864 163.548 28.608 163.548 24.096C163.548 21.824 163.084 20.128 162.156 19.008C161.26 17.888 159.964 17.328 158.268 17.328C154.748 17.328 152.988 19.584 152.988 24.096C152.988 28.608 154.748 30.864 158.268 30.864ZM189.943 11.856C192.759 11.856 194.855 12.688 196.231 14.352C197.607 15.984 198.295 18.464 198.295 21.792V32.88C198.295 33.936 197.959 34.768 197.287 35.376C196.647 35.984 195.767 36.288 194.647 36.288C193.527 36.288 192.647 35.984 192.007 35.376C191.367 34.768 191.047 33.936 191.047 32.88V22.128C191.047 20.528 190.743 19.36 190.135 18.624C189.559 17.888 188.647 17.52 187.399 17.52C185.895 17.52 184.679 18 183.751 18.96C182.855 19.92 182.407 21.2 182.407 22.8V32.88C182.407 33.936 182.087 34.768 181.447 35.376C180.807 35.984 179.927 36.288 178.807 36.288C177.687 36.288 176.791 35.984 176.119 35.376C175.479 34.768 175.159 33.936 175.159 32.88V15.264C175.159 14.272 175.495 13.472 176.167 12.864C176.871 12.256 177.767 11.952 178.855 11.952C179.847 11.952 180.647 12.256 181.255 12.864C181.895 13.44 182.215 14.192 182.215 15.12V15.792C183.047 14.512 184.119 13.536 185.431 12.864C186.775 12.192 188.279 11.856 189.943 11.856ZM218.49 11.856C221.306 11.856 223.402 12.688 224.778 14.352C226.154 15.984 226.842 18.464 226.842 21.792V32.88C226.842 33.936 226.506 34.768 225.834 35.376C225.194 35.984 224.314 36.288 223.194 36.288C222.074 36.288 221.194 35.984 220.554 35.376C219.914 34.768 219.594 33.936 219.594 32.88V22.128C219.594 20.528 219.29 19.36 218.682 18.624C218.106 17.888 217.194 17.52 215.946 17.52C214.442 17.52 213.226 18 212.298 18.96C211.402 19.92 210.954 21.2 210.954 22.8V32.88C210.954 33.936 210.634 34.768 209.994 35.376C209.354 35.984 208.474 36.288 207.354 36.288C206.234 36.288 205.338 35.984 204.666 35.376C204.026 34.768 203.706 33.936 203.706 32.88V15.264C203.706 14.272 204.042 13.472 204.714 12.864C205.418 12.256 206.314 11.952 207.402 11.952C208.394 11.952 209.194 12.256 209.802 12.864C210.442 13.44 210.762 14.192 210.762 15.12V15.792C211.594 14.512 212.666 13.536 213.978 12.864C215.322 12.192 216.826 11.856 218.49 11.856ZM242.861 11.856C246.317 11.856 248.877 12.704 250.541 14.4C252.205 16.064 253.037 18.624 253.037 22.08V32.928C253.037 33.984 252.733 34.816 252.125 35.424C251.517 36 250.669 36.288 249.581 36.288C248.557 36.288 247.725 35.984 247.085 35.376C246.477 34.736 246.173 33.92 246.173 32.928V32.592C245.693 33.776 244.893 34.704 243.773 35.376C242.653 36.048 241.341 36.384 239.837 36.384C238.237 36.384 236.781 36.064 235.469 35.424C234.189 34.784 233.165 33.888 232.397 32.736C231.661 31.584 231.293 30.304 231.293 28.896C231.293 27.168 231.725 25.808 232.589 24.816C233.485 23.824 234.909 23.104 236.861 22.656C238.813 22.208 241.485 21.984 244.877 21.984H246.125V21.12C246.125 19.776 245.821 18.8 245.213 18.192C244.637 17.584 243.661 17.28 242.285 17.28C240.909 17.28 238.925 17.76 236.333 18.72C235.597 19.072 234.973 19.248 234.461 19.248C233.757 19.248 233.197 19.008 232.781 18.528C232.365 18.016 232.157 17.36 232.157 16.56C232.157 15.92 232.301 15.392 232.589 14.976C232.877 14.56 233.341 14.176 233.981 13.824C235.101 13.216 236.461 12.736 238.061 12.384C239.693 12.032 241.293 11.856 242.861 11.856ZM241.421 31.392C242.829 31.392 243.965 30.928 244.829 30C245.693 29.04 246.125 27.808 246.125 26.304V25.488H245.309C242.717 25.488 240.893 25.696 239.837 26.112C238.813 26.528 238.301 27.28 238.301 28.368C238.301 29.264 238.589 30 239.165 30.576C239.773 31.12 240.525 31.392 241.421 31.392ZM262.104 36.288C261.048 36.288 260.168 36 259.464 35.424C258.792 34.848 258.456 34 258.456 32.88V15.36C258.456 14.24 258.808 13.392 259.512 12.816C260.216 12.24 261.08 11.952 262.104 11.952C263.128 11.952 263.976 12.24 264.648 12.816C265.352 13.392 265.704 14.24 265.704 15.36V32.88C265.704 34 265.352 34.848 264.648 35.424C263.976 36 263.128 36.288 262.104 36.288ZM262.104 8.112C260.824 8.112 259.816 7.792 259.08 7.152C258.344 6.48 257.976 5.584 257.976 4.464C257.976 3.344 258.344 2.464 259.08 1.824C259.816 1.184 260.824 0.863997 262.104 0.863997C263.352 0.863997 264.344 1.2 265.08 1.872C265.848 2.512 266.232 3.376 266.232 4.464C266.232 5.584 265.864 6.48 265.128 7.152C264.392 7.792 263.384 8.112 262.104 8.112ZM285.317 11.952C286.277 11.888 287.029 12.112 287.573 12.624C288.149 13.104 288.437 13.84 288.437 14.832C288.437 15.888 288.181 16.672 287.669 17.184C287.157 17.696 286.245 18.016 284.933 18.144L283.493 18.288C281.733 18.48 280.453 19.056 279.653 20.016C278.885 20.976 278.501 22.208 278.501 23.712V32.88C278.501 34 278.149 34.848 277.445 35.424C276.773 36 275.925 36.288 274.901 36.288C273.845 36.288 272.965 36 272.261 35.424C271.589 34.848 271.253 34 271.253 32.88V15.264C271.253 14.208 271.605 13.392 272.309 12.816C273.013 12.24 273.861 11.952 274.853 11.952C275.813 11.952 276.613 12.24 277.253 12.816C277.893 13.36 278.213 14.128 278.213 15.12V16.416C278.789 15.04 279.653 13.984 280.805 13.248C281.989 12.512 283.269 12.096 284.645 12L285.317 11.952ZM308.962 28.992C309.602 28.992 310.114 29.248 310.498 29.76C310.914 30.272 311.122 30.928 311.122 31.728C311.122 32.272 310.962 32.784 310.642 33.264C310.322 33.712 309.874 34.096 309.298 34.416C308.21 34.992 306.946 35.472 305.506 35.856C304.066 36.208 302.738 36.384 301.522 36.384C298.962 36.384 296.722 35.888 294.802 34.896C292.914 33.904 291.458 32.496 290.434 30.672C289.41 28.816 288.898 26.64 288.898 24.144C288.898 21.744 289.394 19.616 290.386 17.76C291.378 15.904 292.754 14.464 294.514 13.44C296.274 12.384 298.274 11.856 300.514 11.856C302.658 11.856 304.53 12.336 306.13 13.296C307.762 14.224 309.026 15.568 309.922 17.328C310.818 19.056 311.266 21.088 311.266 23.424C311.266 24.128 311.09 24.672 310.738 25.056C310.418 25.408 309.954 25.584 309.346 25.584H295.906C296.13 27.472 296.706 28.848 297.634 29.712C298.562 30.544 299.89 30.96 301.618 30.96C302.546 30.96 303.378 30.848 304.114 30.624C304.85 30.4 305.666 30.096 306.562 29.712C307.01 29.52 307.442 29.36 307.858 29.232C308.274 29.072 308.642 28.992 308.962 28.992ZM300.706 16.848C299.33 16.848 298.226 17.296 297.394 18.192C296.562 19.056 296.066 20.32 295.906 21.984H305.17C305.074 20.288 304.642 19.008 303.874 18.144C303.138 17.28 302.082 16.848 300.706 16.848Z" fill="#1A54F8"/>
</svg>
