<svg width="172" height="100" viewBox="0 0 172 100" fill="none" xmlns="http://www.w3.org/2000/svg">
<path d="M88 9.42639C60.9095 9.42639 35.9775 21.7769 19.5986 43.3055C17.0443 46.6586 17.0443 51.3415 19.5963 54.6901C35.9775 76.2233 60.9095 88.5737 88 88.5737C115.09 88.5737 140.023 76.2232 156.401 54.6946C158.956 51.3415 158.956 46.6631 156.404 43.31C140.023 21.7768 115.09 9.42639 88 9.42639ZM148.942 49.0138C134.349 68.1963 112.136 79.1987 88 79.1987C63.8644 79.1987 41.6514 68.1963 27.0579 48.9863C41.6514 29.8038 63.8644 18.8014 88 18.8014C112.136 18.8014 134.349 29.8038 148.942 48.9863C148.942 48.9886 148.942 49.0115 148.942 49.0138Z" fill="#8A8A8A"/>
<path d="M88 21.5594C72.8686 21.5594 60.5593 33.8687 60.5593 49.0001C60.5593 64.1314 72.8686 76.4407 88 76.4407C103.131 76.4407 115.441 64.1314 115.441 49.0001C115.441 33.8687 103.131 21.5594 88 21.5594ZM88 67.0657C78.039 67.0657 69.9343 58.961 69.9343 49.0001C69.9343 39.0391 78.039 30.9344 88 30.9344C97.9609 30.9344 106.066 39.0391 106.066 49.0001C106.066 58.961 97.9609 67.0657 88 67.0657Z" fill="#8A8A8A"/>
<line x1="8.13345" y1="6.58195" x2="165.582" y2="91.8666" stroke="#8A8A8A" stroke-width="12" stroke-linecap="round"/>
</svg>
