<svg width="76" height="76" viewBox="0 0 76 76" fill="none" xmlns="http://www.w3.org/2000/svg">
<path d="M38 53.8334C39.7489 53.8334 41.1667 52.4156 41.1667 50.6667C41.1667 48.9178 39.7489 47.5 38 47.5C36.2511 47.5 34.8334 48.9178 34.8334 50.6667C34.8334 52.4156 36.2511 53.8334 38 53.8334Z" fill="#8A8A8A"/>
<path fill-rule="evenodd" clip-rule="evenodd" d="M22.1667 22.1667V31.6667H19C15.5022 31.6667 12.6667 34.5022 12.6667 38V63.3334C12.6667 66.8312 15.5022 69.6667 19 69.6667H57C60.4978 69.6667 63.3334 66.8312 63.3334 63.3334V38C63.3334 34.5022 60.4978 31.6667 57 31.6667H53.8334V22.1667C53.8334 13.4222 46.7445 6.33337 38 6.33337C29.2555 6.33337 22.1667 13.4222 22.1667 22.1667ZM38 12.6667C32.7533 12.6667 28.5 16.92 28.5 22.1667V31.6667H47.5V22.1667C47.5 16.92 43.2467 12.6667 38 12.6667ZM19 38V63.3334H57V38H19Z" fill="#8A8A8A"/>
</svg>
