<svg width="142" height="80" viewBox="0 0 142 80" fill="none" xmlns="http://www.w3.org/2000/svg">
<path d="M71 0.426392C43.9095 0.426392 18.9775 12.7769 2.59864 34.3055C0.044326 37.6586 0.0443263 42.3415 2.59634 45.6901C18.9775 67.2233 43.9095 79.5737 71 79.5737C98.0905 79.5737 123.023 67.2232 139.401 45.6946C141.956 42.3415 141.956 37.6631 139.404 34.31C123.023 12.7768 98.0905 0.426392 71 0.426392ZM131.942 40.0138C117.349 59.1963 95.1356 70.1987 71 70.1987C46.8644 70.1987 24.6514 59.1963 10.0579 39.9863C24.6514 20.8038 46.8644 9.80139 71 9.80139C95.1356 9.80139 117.349 20.8038 131.942 39.9863C131.942 39.9886 131.942 40.0115 131.942 40.0138Z" fill="#8A8A8A"/>
<path d="M71 12.5594C55.8686 12.5594 43.5593 24.8687 43.5593 40.0001C43.5593 55.1314 55.8686 67.4407 71 67.4407C86.1313 67.4407 98.4406 55.1314 98.4406 40.0001C98.4406 24.8687 86.1313 12.5594 71 12.5594ZM71 58.0657C61.039 58.0657 52.9343 49.961 52.9343 40.0001C52.9343 30.0391 61.039 21.9344 71 21.9344C80.9609 21.9344 89.0656 30.0391 89.0656 40.0001C89.0656 49.961 80.9609 58.0657 71 58.0657Z" fill="#8A8A8A"/>
</svg>
