<svg width="250" height="250" viewBox="0 0 250 250" fill="none" xmlns="http://www.w3.org/2000/svg">
<circle cx="125" cy="125" r="125" fill="white"/>
<g filter="url(#filter0_d_6_2)">
<path d="M165.48 187.52C166.824 189.632 167.496 191.696 167.496 193.712C167.496 196.304 166.392 198.464 164.184 200.192C162.072 201.92 159.576 202.784 156.696 202.784C154.68 202.784 152.76 202.304 150.936 201.344C149.208 200.384 147.816 198.992 146.76 197.168L138.12 182.768C136.968 180.848 135.432 179.456 133.512 178.592C131.592 177.728 129 177.296 125.736 177.296C115.656 177.296 106.872 175.184 99.384 170.96C91.992 166.64 86.28 160.592 82.248 152.816C78.216 144.944 76.2 135.728 76.2 125.168C76.2 114.608 78.216 105.44 82.248 97.664C86.28 89.792 91.992 83.744 99.384 79.52C106.872 75.296 115.656 73.184 125.736 73.184C135.816 73.184 144.552 75.296 151.944 79.52C159.432 83.744 165.192 89.792 169.224 97.664C173.256 105.44 175.272 114.608 175.272 125.168C175.272 136.208 173.064 145.76 168.648 153.824C164.328 161.792 158.136 167.744 150.072 171.68C154.776 173.12 158.568 176.192 161.448 180.896L165.48 187.52ZM125.736 159.872C134.184 159.872 140.808 156.896 145.608 150.944C150.504 144.992 152.952 136.4 152.952 125.168C152.952 113.936 150.552 105.392 145.752 99.536C140.952 93.584 134.28 90.608 125.736 90.608C117.192 90.608 110.52 93.584 105.72 99.536C101.016 105.392 98.664 113.936 98.664 125.168C98.664 136.4 101.064 144.992 105.864 150.944C110.664 156.896 117.288 159.872 125.736 159.872Z" fill="#1A54F8"/>
</g>
<defs>
<filter id="filter0_d_6_2" x="72.2" y="73.184" width="107.072" height="137.6" filterUnits="userSpaceOnUse" color-interpolation-filters="sRGB">
<feFlood flood-opacity="0" result="BackgroundImageFix"/>
<feColorMatrix in="SourceAlpha" type="matrix" values="0 0 0 0 0 0 0 0 0 0 0 0 0 0 0 0 0 0 127 0" result="hardAlpha"/>
<feOffset dy="4"/>
<feGaussianBlur stdDeviation="2"/>
<feComposite in2="hardAlpha" operator="out"/>
<feColorMatrix type="matrix" values="0 0 0 0 0 0 0 0 0 0 0 0 0 0 0 0 0 0 0.25 0"/>
<feBlend mode="normal" in2="BackgroundImageFix" result="effect1_dropShadow_6_2"/>
<feBlend mode="normal" in="SourceGraphic" in2="effect1_dropShadow_6_2" result="shape"/>
</filter>
</defs>
</svg>
